Coordinates
version=1
nRows=24
nColumns=24
inDegrees=yes

Units are S.I. units (second, meters, Newtons, ...)
Angles are in degrees.

endheader
time	pelvis_tilt	pelvis_list	pelvis_rotation	pelvis_tx	pelvis_ty	pelvis_tz	hip_flexion_r	hip_adduction_r	hip_rotation_r	knee_angle_r	ankle_angle_r	subtalar_angle_r	mtp_angle_r	hip_flexion_l	hip_adduction_l	hip_rotation_l	knee_angle_l	ankle_angle_l	subtalar_angle_l	mtp_angle_l	lumbar_extension	lumbar_bending	lumbar_rotation
      4.05000000	     -9.68383079	     -6.37996383	      7.42077063	     -0.29824167	     -0.03827267	      0.69663873	     31.78550312	      3.45929793	     -2.36267530	    -34.15918506	      3.22013675	     -3.11850951	     16.47811611	     14.69262206	     -5.50326114	      3.92180113	    -60.00052603	    -19.19937515	      3.07941982	     28.23465763	      8.24611266	     13.35610410	    -12.52757531
      4.05500000	     -9.64743798	     -6.46319821	      7.24858146	     -0.29133460	     -0.03697586	      0.69717820	     31.07535204	      3.73805846	     -2.25251518	    -33.72221171	      3.50169029	     -3.06797557	     16.39837207	     15.75953327	     -5.59648654	      3.66374285	    -61.29122087	    -18.62251737	      3.27205587	     28.70544525	      8.13981585	     13.48034620	    -12.18057017
      4.06000000	     -9.56031332	     -6.49789024	      7.08546022	     -0.28446894	     -0.03555772	      0.69760359	     30.29245146	      3.93893363	     -2.20286032	    -33.25992934	      3.79686911	     -2.89440338	     16.39545752	     16.75711904	     -5.64334136	      3.37033780	    -62.46986618	    -18.24514551	      3.26022401	     29.02783176	      7.96854611	     13.56659233	    -11.83488047
      4.06500000	     -9.48642231	     -6.51601560	      6.92889247	     -0.27754301	     -0.03410972	      0.69801362	     29.48893003	      4.12298784	     -2.11396379	    -32.74632326	      4.07226685	     -2.77611833	     16.35554638	     17.73575331	     -5.66556899	      3.11068884	    -63.53229977	    -17.87589699	      3.28571077	     29.32317989	      7.83061269	     13.62701859	    -11.48011475
      4.07000000	     -9.41634218	     -6.54289180	      6.72641131	     -0.27071075	     -0.03268922	      0.69857622	     28.69542830	      4.34692719	     -1.97197186	    -32.22759372	      4.30556321	     -2.71738081	     16.18541631	     18.72066372	     -5.73288896	      2.82785313	    -64.52644350	    -17.57101184	      3.43629317	     29.62219134	      7.66965332	     13.69075816	    -11.13741181
      4.07500000	     -9.35214507	     -6.54277606	      6.58118903	     -0.26377581	     -0.03120527	      0.69897124	     27.85655943	      4.50779076	     -1.82896145	    -31.63919645	      4.54038858	     -2.63011804	     16.06107307	     19.67627011	     -5.72886698	      2.61552621	    -65.38969658	    -17.33237521	      3.43870566	     29.83250774	      7.55689838	     13.71946477	    -10.80337977
      4.08000000	     -9.28973767	     -6.54410312	      6.40811494	     -0.25690824	     -0.02977692	      0.69942858	     27.02363824	      4.68166456	     -1.66376116	    -31.04933759	      4.76217207	     -2.55334866	     15.91309912	     20.62682381	     -5.74416482	      2.38430595	    -66.18130677	    -17.11332419	      3.44312874	     30.01530716	      7.42815810	     13.75023727	    -10.47438452
      4.08500000	     -9.21594821	     -6.53417599	      6.16438204	     -0.25004600	     -0.02837452	      0.70011674	     26.17568952	      4.91331309	     -1.35431766	    -30.46686259	      4.99041554	     -2.63151505	     15.32515505	     21.53236447	     -5.79777626	      2.09775471	    -66.88217933	    -16.85987674	      3.53990990	     30.20445000	      7.26264900	     13.75994651	    -10.07605115
      4.09000000	     -9.17233354	     -6.51991965	      6.03303295	     -0.24320303	     -0.02702635	      0.70044843	     25.34449134	      5.02991551	     -1.21823937	    -29.84656347	      5.20884568	     -2.48602805	     15.26465878	     22.47578006	     -5.76318283	      1.92411345	    -67.50019191	    -16.65954675	      3.40369128	     30.32620284	      7.17005951	     13.76741484	     -9.80702052
      4.09500000	     -9.12333555	     -6.50707401	      5.78977302	     -0.23636084	     -0.02574402	      0.70104842	     24.51635117	      5.22437350	     -0.95397877	    -29.23716658	      5.38305471	     -2.54061308	     14.94534154	     23.37582401	     -5.80205527	      1.64127835	    -68.03874235	    -16.39983506	      3.30453037	     30.42866689	      7.03569701	     13.78049943	     -9.37422101
      4.10000000	     -9.08667419	     -6.48674729	      5.59875595	     -0.22949520	     -0.02451301	      0.70154064	     23.68664834	      5.37398301	     -0.71673300	    -28.60545172	      5.58090827	     -2.52880335	     14.74185539	     24.28144395	     -5.80526083	      1.41502902	    -68.49395825	    -16.16669247	      3.17214132	     30.52370617	      6.93994321	     13.77300024	     -9.08499940
      4.10500000	     -9.05076858	     -6.44243417	      5.36850747	     -0.22266028	     -0.02332559	      0.70212021	     22.86516323	      5.52854938	     -0.38429345	    -27.98848345	      5.71216403	     -2.65649247	     14.36238494	     25.15182837	     -5.79461309	      1.17168783	    -68.86006963	    -15.88122679	      3.02481853	     30.60908746	      6.81932152	     13.74437899	     -8.67368850
      4.11000000	     -9.01401449	     -6.35588007	      5.15028520	     -0.21579650	     -0.02218622	      0.70273566	     22.03795083	      5.63915485	     -0.01655188	    -27.38682548	      5.91780448	     -2.77068951	     13.78681766	     25.99461618	     -5.74360479	      0.93100256	    -69.13578452	    -15.60555223	      2.91070192	     30.66179924	      6.70392418	     13.65694437	     -8.33550583
      4.11500000	     -8.99761000	     -6.29084543	      4.92452510	     -0.20896598	     -0.02116291	      0.70331019	     21.24851269	      5.74910458	      0.29272273	    -26.79409225	      6.08685697	     -2.84315538	     13.43067865	     26.85083118	     -5.71305946	      0.69670757	    -69.34694410	    -15.34114221	      2.72365471	     30.71416054	      6.60472651	     13.59844298	     -7.96659042
      4.12000000	     -8.98987479	     -6.23233564	      4.70410393	     -0.20212705	     -0.02022742	      0.70387002	     20.47184020	      5.84936313	      0.57038734	    -26.19899762	      6.24500805	     -2.88357872	     13.26393633	     27.70087631	     -5.68918368	      0.47904378	    -69.48418099	    -15.09206260	      2.53126875	     30.76121450	      6.51921206	     13.54421796	     -7.64012914
      4.12500000	     -8.98387515	     -6.11258887	      4.44177451	     -0.19531621	     -0.01932823	      0.70455077	     19.70527267	      5.91555183	      0.97036301	    -25.62969112	      6.36668469	     -3.04166553	     13.03389118	     28.50903462	     -5.62670011	      0.21597413	    -69.52410750	    -14.84572227	      2.33660218	     30.73567489	      6.41082148	     13.41840028	     -7.24178198
      4.13000000	     -8.96802302	     -5.97786823	      4.16587396	     -0.18853514	     -0.01849006	      0.70524797	     18.94641683	      5.96088606	      1.35450769	    -25.09218902	      6.48550765	     -3.18815534	     12.75308627	     29.28297106	     -5.56316515	     -0.06505331	    -69.49051768	    -14.57962315	      2.12562713	     30.59760490	      6.27999419	     13.28077703	     -6.78343920
      4.13500000	     -8.96374576	     -5.83185603	      3.88995638	     -0.18175750	     -0.01774306	      0.70595207	     18.20626587	      5.98466359	      1.75068467	    -24.56754599	      6.63633814	     -3.30119095	     12.48793158	     30.05063996	     -5.49393334	     -0.34596718	    -69.38554141	    -14.32643082	      1.89656832	     30.35532832	      6.16238086	     13.12426562	     -6.37445655
      4.14000000	     -8.96207548	     -5.66824305	      3.60515057	     -0.17500218	     -0.01707371	      0.70666493	     17.48311426	      5.98353384	      2.15295757	    -24.06825336	      6.79499995	     -3.41350084	     12.20069680	     30.79899965	     -5.41769880	     -0.64025072	    -69.21054418	    -14.06156174	      1.64963286	     29.98359361	      6.04030625	     12.94736940	     -5.95508552
      4.14500000	     -8.90839057	     -5.53968998	      3.34064132	     -0.16825535	     -0.01646517	      0.70731561	     16.71335477	      6.00289458	      2.52175656	    -23.59403217	      7.05865235	     -3.38917157	     11.58777248	     31.49099104	     -5.37842012	     -0.91431166	    -69.02513427	    -13.56031951	      1.50112955	     28.91869089	      5.86712635	     12.81132500	     -5.57269673
      4.15000000	     -8.97526044	     -5.33133896	      3.07061867	     -0.16156741	     -0.01601821	      0.70801202	     16.10102268	      5.92544198	      2.88238670	    -23.15081868	      7.19787013	     -3.54086200	     11.45359146	     32.27377821	     -5.25154297	     -1.19854544	    -68.69018606	    -13.39010499	      1.16067854	     28.64042504	      5.81538351	     12.57080242	     -5.19016797
      4.15500000	     -8.98027460	     -5.13537664	      2.74981998	     -0.15490067	     -0.01558519	      0.70876754	     15.42970446	      5.87621401	      3.32017901	    -22.71914287	      7.34547097	     -3.65918581	     11.27356635	     32.96234608	     -5.19004479	     -1.53949505	    -68.30085790	    -13.12693708	      0.84780078	     28.11007049	      5.68061483	     12.35349514	     -4.74988542
      4.16000000	     -8.97962721	     -4.93234466	      2.44916614	     -0.14825424	     -0.01522903	      0.70947179	     14.76394515	      5.80447609	      3.73630697	    -22.30682543	      7.50607939	     -3.77440696	     11.07076784	     33.62896018	     -5.11524808	     -1.86794851	    -67.85798662	    -12.78731705	      0.54412002	     27.31466059	      5.54326313	     12.12654951	     -4.34049461
      4.16500000	     -8.92996951	     -4.82288007	      2.19435005	     -0.14160275	     -0.01497645	      0.71002519	     14.04965237	      5.79939294	      4.06655955	    -21.89672471	      7.73306718	     -3.73032019	     10.75476789	     34.26330981	     -5.11694306	     -2.13509939	    -67.45124433	    -12.08701969	      0.39408801	     25.58690374	      5.37179702	     12.00290454	     -4.02816082
